<?xml version="1.0" encoding="utf-8"?>
<!-- Generator: Adobe Illustrator 22.1.0, SVG Export Plug-In . SVG Version: 6.00 Build 0)  -->
<svg version="1.1" id="Layer_1" xmlns="http://www.w3.org/2000/svg" xmlns:xlink="http://www.w3.org/1999/xlink" x="0px" y="0px"
	 viewBox="0 0 800 800" style="enable-background:new 0 0 800 800;" xml:space="preserve">
<style type="text/css">
	.st0{fill:#D1181F;}
	.st1{fill:#231F20;}
	.st2{fill:#FFD113;}
	.st3{fill:#00A551;}
	.st4{fill:#00ADEE;}
</style>
<g>
	<g>
		<path class="st0" d="M303.5,310.5c3.4,0,17-15.6,10-15.6c-3.6,0-6.4,4.3-7.6,4.3s-1.6-5.4-5.4-5.4
			C295.7,293.8,300.1,310.5,303.5,310.5z"/>
		<path class="st1" d="M426.8,304c5.4,0,14.9-16.8,4.1-16.8C421.3,287.3,420,304,426.8,304z"/>
		<path class="st1" d="M682.1,356.7c-2.4,0-2.1,4.2-5.2,10.5c-4.4,9.1-13.4,21.4-26.4,21.4c-14.5,0-22-12.3-22-42.5
			c0-3.2,0.2-6.6,0.7-9.9c17.5-6.4,57.1-38.1,57.1-64.7c0-7.5-2.8-17.7-13.7-17.7c-20.5,0-49.9,47.1-53.3,81.1
			c-6,6.6-24.4,26.3-31.5,26.3c-5.1,0-6.7-3.4-6.7-9.1c0-15.5,16.2-31.4,7.7-31.4c-2.8,0-6.5,2.9-9.7,7c-1.2-4.3-4.5-10-13.8-10
			c-11.8,0-23.7,12.5-26.4,21.5c-4.6,5.3-24.1,34-34.4,34c-9,0-7.1-10.5-2.4-22.6c3.7-9.7,9.4-20.5,9.4-27.4c0-5.8-3.6-9.7-10.1-9.7
			c-14,0-30.8,23.1-38.1,32.2c0.2-12.4,6.6-23.9-0.5-23.9c-2.1,0-3.8,1.5-5.2,3.8c-9.1,7.8-32,29.6-39.4,29.6
			c-3.6,0-5.5-1.9-5.5-7.1c0-12.5,19.2-31.7,7.9-31.7c-4.9,0-10.8,8.3-13.9,16.6c-6.8,7-20.5,16.3-39.1,27.1c1-9,1.6-15.7,2.2-18.5
			c3.5-17.1,16.1-27.4,8.7-27.4c-3.7,0-7.9,3-11.5,8.5c-0.9,1.1-2.1,2.6-3.6,4.4c-1.2-4.4-3.9-9.2-9.8-9.2c-10.7,0-22,9-27.5,18.9
			c-8.7,9.7-24.2,25.8-31.3,25.8c-7.5,0-4.2-10.1-0.6-18.2c3.8-8.5,8.3-14.9,3.3-14.9c-5.5,0-10.9,7.1-13.4,13.5
			c-4.1,4.1-29.2,29.1-39.3,29.1c-7.7,0-5.8-11.4-3.1-17.7c5.4-12.8,18.3-26.8,18.3-32.2c0-6-7.6-3.7-11.5-9.8
			c4.2-3.2,11.2-9.4,11.2-16.3c0-13-22.2-13-22.2,4.5c0,5.4,2,9.8,4.5,13.1c-3.5,3-14.7,11.9-29.8,14.5
			c7.7-15.6,13.1-31.3,13.1-40.7c0-21.4-15.2-35.6-32.5-35.6c-17.4,0-38.1,15.6-38.1,41.1c0,11.4,3.5,19.7,9.1,25.6
			c-4.9,9.5-8.2,20.4-8.2,31.8c0,13.3,7,26.5,16.2,26.5c10.4,0,26.7-22.1,38.6-45.3c16.5-2.3,29.5-12.3,33.6-15.9
			c2.4,2.3,5.1,3.5,7,3.5c2.1,0,3.6,2.3,0.7,4.8c-8.5,7.3-21.1,21-21.1,34.1c0,8.8,3.4,17.7,13.3,17.7c9.4,0,30.7-17.6,38.7-25.8
			c0.1,6.5,1.9,15,12.2,15c7.6,0,20.5-12.3,28.4-20.7c-0.3,1.3-0.4,2.6-0.4,3.8c0,8.5,2.8,13.8,8,13.8c5.8,0,21.8-17.8,31-28.5
			c0,0.2,0,0.4,0.1,0.7c-0.5,1.7-1,3.6-1.4,5.5c-1.6,7.9-2.6,17.1-3.5,26.4c-27,15.4-60.8,41.6-60.8,69.7c0,17.9,10.9,23.6,22,23.6
			c12.5,0,32.9-14.3,40.5-45.3c4.4-18.1,6.9-36.8,8.6-50.9c16.7-9.2,30.6-18.9,37.9-24.8c-0.3,1.4-0.4,2.7-0.4,4
			c0,11.2,6.1,16.1,12.7,16.1c9,0,28.3-17.7,38-26.6c-0.6,2.5-0.9,5.2-0.9,8c0,8.5,2.9,15.6,5.4,16.2c0.1,0.1,0.3,0.2,0.5,0.2
			c0.1,0,0.2-0.1,0.4-0.2c0.9-0.2,1.5-0.9,1.9-2.1c6.7-8.3,26.1-36.7,37.5-36.7c10,0-9.8,17.3-9.8,39.5c0,10.9,5.4,19.5,14,19.5
			c10.6,0,28.5-24.1,34.2-31.1c0.7,7.3,4.9,14,11.3,14c5.5,0,15.8-10.7,23.5-19.4c-0.3,1.3-0.4,2.6-0.4,3.8
			c0,10.7,4.9,20.8,14.6,20.8c7.4,0,24-16.7,31.4-24.6c0,0.5,0,0.9,0,1.4c0,22,6.9,50.4,30.6,50.4
			C673.2,391.7,690.1,356.7,682.1,356.7z M163.9,296.1c0-12.2,6-40.2,29.5-40.2c17.1,0,28.1,14.7,28.1,32.2
			c0,9.3-5.6,25.2-13.1,40.7c-1.5,0.1-2.9,0.2-4.4,0.2c-13.6,0-24.3-2.6-31.2-8.9c13.2-25.5,35.7-36.5,29.5-36.5
			c-8.4,0-24.2,11.6-35.1,29.1C165.1,308.2,163.9,302.7,163.9,296.1z M173.5,373.8c-6,0-9.5-7.4-9.5-17c0-12.5,2.8-23.3,6.8-32.4
			c9.6,5.9,22,7.9,33.1,7.9c1,0,2,0,2.9-0.1C195.9,353.7,181.6,373.8,173.5,373.8z M256.7,296.4c0,4.9-5.5,10.2-9.4,13.4
			c-0.6-1.9-1-4.2-1-7.3C246.3,289.7,256.7,289.2,256.7,296.4z M331.3,358.8c-8.6,0,11-38,22.6-38c4.4,0,6.4,4.8,7.3,9.1
			C351.8,341.2,336.4,358.8,331.3,358.8z M318.1,457.2c-12.2,0-19.1-7.9-19.1-20.6c0-26.7,32.4-53.7,57.8-67.6
			c-1.1,11.9-2,23.6-3.6,32.4C347.7,431.4,335.3,457.2,318.1,457.2z M549.6,356.2c-8.8,0,3.1-34.5,18.8-34.5c5.5,0,7.8,4.7,8.8,8.9
			C569.1,339.9,555.8,356.2,549.6,356.2z M673.4,257.1c7.1,0,9.5,7.5,9.5,14.3c0,24.5-35.5,54.5-53.2,61.1
			C635.7,296.7,662,257.1,673.4,257.1z"/>
	</g>
	<path class="st1" d="M600.8,481.8c5.6-5.4,15.1-16,15.1-25c0-5.1-3.1-11.6-10.7-11.6c-9.2,0-17,9.8-17,20.3c0,6.7,2.5,12.6,5.7,18
		c-7.3,6-40.6,32.5-55,32.5c-5.5,0-9.8-5.5-9.8-14.3c0-1.3,0.1-2.7,0.3-4c6.2-1.9,25.6-9.9,25.6-17.9c0-5.5-3.5-9.4-10.1-9.4
		c-10,0-24,13.4-24.7,26.4c-5.7,1.6-15.4,3.9-29.1,6.1c0-0.1,0-0.1,0-0.2c0-9.2-4.4-14.7-11.9-14.7c-10.8,0-27,21.3-35.1,30.8
		c0.6-5.3,1.6-11.4,3.1-18c10.1-8.2,47.7-40.4,47.7-64.1c0-8.1-3.6-15.1-11.1-15.1c-19.3,0-41.8,44.4-48.5,84.7
		c-5.8,5.4-16.8,14.6-24,14.6c-6.1,0-9.8-5.1-9.8-12.2c0-12.4,13.8-29.5,5.2-29.5c-3.7,0-8.7,4.9-11.5,12.2
		c-6.4,7.8-25.7,30.1-38.3,30.1c-6.8,0-11-6.1-11-16.8c0-15.2,11.9-34.8,20-34.8c5.8,0,7.6,5.5,7.6,8.9c0,4.6-5.4,9.8-1,9.8
		c2.4,0,4.6-5.7,4.6-9.5c0-5.2-3.1-12.4-11.6-12.4c-9.4,0-22.3,10.8-27,24.1c-8.8,7.2-38.2,37.8-52.1,37.8
		c-12.4,0-15.3-14-15.3-25.9c0-1.2,0.1-2.3,0.2-3.5c12.4-3.4,34.8-16.8,34.8-27.9c0-6.3-3.3-10.1-10.6-10.1
		c-15.8,0-35.8,21.3-35.8,38.3c0,0.4,0,0.7,0,1.1c-6.2,5.1-20.1,18.4-30.6,18.4c-5.1,0-8-4.5-8-10.7c0-11.5,11.2-27.5,11.2-34.1
		c0-6.2-7-10.1-11.8-15.7c11.2-7.6,19.1-15.7,19.1-22.6c0-17.3-32.3-11-32.3,10.4c0,5.5,2.4,9.5,5.3,12.7
		c-17.3,10.3-63.2,30.6-63.2,57.4c0,9.9,2.5,16.5,6.9,16.5c5.1,0-2.4-8.3-2.4-18.3c0-23.9,50.7-46.9,61.4-52.9
		c3.9,3.6,7.7,6.2,7.7,9.5c0,6.7-11.2,24.6-11.2,34.1c0,11.8,8.8,17.4,16.7,17.4c11.4,0,25.3-13.1,31.5-18.4
		c1.9,16.3,13.4,27.8,26.6,27.8c11.8,0,40.1-25.5,50.4-34.7c-0.1,1.1-0.2,2.2-0.2,3.3c0,16.2,10.9,24.4,20,24.4
		c11.7,0,28.1-16.3,36.7-26c-0.1,1.2-0.2,2.4-0.2,3.6c0,13.6,8.9,21.4,17.6,21.4c6.7,0,17.6-8.1,24.1-13.5
		c-0.7,5.4-1.2,10.7-1.2,15.8c-0.3,18.8,0.1,33.9-0.8,43.7c-0.9,10.4-3.4,16.3-0.6,16.3c6.6,0,9.3-33.2,11.2-57.3
		c6.4-15.5,27.1-37.5,34.2-37.5c2.7,0,4.5,2.7,4.5,7.3c0,1.7-0.2,3.6-0.6,5.5c-23.1,4.4-30.8,14.3-30.8,20.1
		c0,6.2,3.4,11.6,10.4,11.6c11.3,0,27.8-16.2,30-30.5c11.1-1.7,22.5-4.3,29.4-5.9c0.8,11.5,8.4,19.3,18.2,19.3
		c14.2,0,47.9-25.6,57.2-32.8c6.1,9.4,13.7,18,13.7,28.6c0,21-24.9,25.2-24.9,8.6c0-2.1,1.6-4.4,2.8-6.6c1.3-2.3,1.9-4.9-1-4.9
		c-2.8,0-5.8,4.1-5.8,10.1c0,8.7,5.8,15.5,15.5,15.5c10,0,21.6-11.3,21.6-22.2C617.5,500.5,606.9,492.8,600.8,481.8z M235.4,435.2
		c0,7-6.4,12.7-17.4,20.1c-1.2-2.1-2.1-4.5-2.1-7.3C215.9,432.2,235.4,425.3,235.4,435.2z M296.3,465.1c6.4,0,7.4,7.1,3.7,11.8
		c-6.2,7.8-20.4,15.9-28.2,18.2C275.3,480.3,287.6,465.1,296.3,465.1z M484,424.6c5.2,0,7.5,6,7.5,12.1c0,19.1-32.5,51.9-43.4,59.5
		C455.8,464.3,471.4,424.6,484,424.6z M460,532.6c-4.4,0-6.1-4.2-6.1-7.3c0-7.4,10.9-14.8,26.7-18
		C477.3,519.3,468.2,532.6,460,532.6z M546.6,474c3.4,0,5.1,2.4,5.1,5.4c0,5.6-14.7,12.8-21.7,14.7C532.7,482.9,540.9,474,546.6,474
		z M612.3,456.7c0,8-8,17-13.1,21.9c-1.6-3.6-2.6-7.6-2.6-12.2C596.7,447.7,612.3,445,612.3,456.7z"/>
	<polygon class="st2" points="387.6,548.8 383.1,544.5 377,545.8 379.7,540.2 376.6,534.8 382.8,535.6 389.1,526.3 388.1,537.1 
		393.8,539.7 388.3,542.6 	"/>
	<polygon class="st2" points="390.9,585.3 382.9,581.2 378.2,585.3 377.8,579 372.4,575.9 378.2,573.5 378.2,561.4 383.5,572.2 
		389.8,571.7 386.4,576.9 	"/>
	<polygon class="st2" points="487.2,571.5 484.5,565.9 478.4,564.9 482.9,560.6 481.9,554.4 487.4,557.4 493,554.6 491.8,560.7 
		496.2,565.1 490,566 	"/>
	<polygon class="st2" points="714.7,391.7 713.9,382.3 703,381 713.7,376.8 714.3,370.6 718.8,374.9 729.6,370.6 722.2,379.2 
		725.4,384.6 719.2,383.8 	"/>
	<polygon class="st2" points="264,260.6 266.2,245.5 259.1,241.1 266.9,238.2 266.8,221.7 274.2,236.5 282.5,235.9 277.9,242.9 
		281.1,250.7 273,248.5 	"/>
	<polygon class="st2" points="324.2,566.6 315.1,560.1 309.4,564 309.7,557.1 304.2,553 310.9,551.1 312.3,536.6 317,550.4 
		323.9,550.6 319.5,556 	"/>
	<polygon class="st2" points="232.2,567.1 225.2,568.2 222.1,574.6 218.9,568.2 211.8,567.3 216.8,562.2 215.6,555.2 221.9,558.5 
		228.2,555.1 227.1,562.1 	"/>
	<polygon class="st2" points="60.7,543.3 55,544.1 52.5,549.3 49.9,544.2 44.2,543.4 48.3,539.4 47.3,533.7 52.4,536.3 57.5,533.6 
		56.5,539.3 	"/>
	<polygon class="st2" points="271.5,420.2 265.9,421 263.4,426.2 260.8,421.1 255.1,420.3 259.2,416.3 258.1,410.6 263.2,413.2 
		268.3,410.5 267.4,416.2 	"/>
	<polygon class="st2" points="427,451 420.3,457.2 421.5,466.2 413.6,461.7 405.3,465.7 407.2,456.8 400.8,450.1 409.9,449.1 
		414.3,441 418,449.4 	"/>
	<polygon class="st2" points="390.1,419.8 386.1,423.4 386.9,428.8 382.1,426.1 377.2,428.5 378.3,423.2 374.6,419.2 380,418.6 
		382.5,413.8 384.8,418.8 	"/>
	<polygon class="st2" points="541.2,423.1 536.2,425.2 535.1,430.6 531.6,426.5 526.2,427.1 528.9,422.4 526.7,417.5 532,418.7 
		536,415 536.5,420.4 	"/>
	<path class="st0" d="M129.6,454c0,0-11.7-35.1-71.9-35.1c-66.5,0-61.9,59.8-31,59.8c19.7,0,41.7-19.1,36.9-19.1
		S50,473.5,26.8,473.5c-22.6,0-24.2-50,32.2-50C112.5,423.4,126.4,454,129.6,454z"/>
	<path class="st0" d="M151.8,436.9c1.1,0.6-3.7-18.8-16.2-37.7c-11.6-17.6-36.2-36.2-41-31.4c-5,4.9,14.8,10.2,32.2,28.2
		C146.7,416.7,148.7,435.4,151.8,436.9z"/>
	<circle class="st0" cx="696.5" cy="571.7" r="9.8"/>
	<circle class="st0" cx="669.6" cy="531.6" r="4.8"/>
	<circle class="st0" cx="722.1" cy="525.1" r="6"/>
	<circle class="st0" cx="722.9" cy="442" r="6.3"/>
	<g>
		<path class="st0" d="M681.3,491.1c-9.7,0-17.6-7.9-17.6-17.6s7.9-17.6,17.6-17.6s17.6,7.9,17.6,17.6S690.9,491.1,681.3,491.1z
			 M681.3,459.6c-7.7,0-14,6.3-14,14s6.3,14,14,14s14-6.3,14-14S689,459.6,681.3,459.6z"/>
	</g>
	<path class="st3" d="M749,313.6c-12.7,1.7-18.2,8.1-20.1,10.8c-7.4,2-12.2,4.3-15.2,6.2c4.5-8.2,11.7-18.4,22.1-25.9
		c4.8,0.5,17.1-2.1,32-14.9c17.4-14.9,23.1-35.3,23.1-35.3c-10.9,11.8-22.1,14.6-38.7,23.1c-18.1,9.2-18.6,21.9-18.3,25.6
		c-12.2,9.1-20.4,21.9-24.8,31.1c-0.6-2.9-1.8-5.3-3.1-7.3c0.1-6.3-4.2-9.8-11.4-13.5c0.2,13.5,7.4,15.7,10.2,16
		c1.3,2.3,2.4,5.1,2.5,8.4l0.3,0c-1,2.4-1.6,4.4-1.9,5.8l2.3,0.5c0.2-1.2,1.2-4.2,3-8.2c0.4-0.5,4.3-5.6,19.5-9.6
		c2.9,0.7,8.4,1.5,15.4,0c13.3-2.8,20.1-9.1,28-13C767.5,313.4,762,311.9,749,313.6z"/>
	<path class="st3" d="M482.8,249.8c2.5-4.6,19.3-17.2,52.8-7.9c43.3,12.1,55.2,4.6,55.2,4.6s-18.9,24.9-57.6,18.7
		C498.8,259.6,486,252.5,482.8,249.8z"/>
	<path class="st4" d="M368.7,237c0,0-10.4-6.5-13.6,1.7c-4.3,11.1,19.6,20.5,22.2,19.7c2.5-0.8,13.6-30,1.1-31.8
		C369.2,225.2,368.7,237,368.7,237z"/>
</g>
</svg>
